<svg version="1.1" id="Layer_1" xmlns="http://www.w3.org/2000/svg" xmlns:xlink="http://www.w3.org/1999/xlink" x="0px" y="0px"
	 width="100%" viewBox="0 0 388 354" enable-background="new 0 0 388 354" xml:space="preserve">
<path fill="#FFFFFF" opacity="1.000000" stroke="none" 
	d="
M229.000000,355.000000 
	C152.692215,355.000000 76.884430,355.000000 1.038321,355.000000 
	C1.038321,237.065308 1.038321,119.130608 1.038321,1.097950 
	C130.224396,1.097950 259.448914,1.097950 388.836700,1.097950 
	C388.836700,118.999817 388.836700,236.999893 388.836700,355.000000 
	C335.797363,355.000000 282.648682,355.000000 229.000000,355.000000 
M275.959015,253.668594 
	C276.310486,254.131729 276.661957,254.594849 276.988708,255.535309 
	C276.988708,255.535309 276.996216,256.013214 276.310638,256.136261 
	C276.227051,257.042175 276.143463,257.948059 275.623016,259.360107 
	C274.096832,258.551331 272.103180,258.111481 271.124084,256.870911 
	C266.485046,250.993042 262.122955,244.896622 257.195557,238.375031 
	C254.662323,233.539124 252.243713,228.636734 249.507492,223.918549 
	C248.896622,222.865204 247.170425,222.458664 245.703506,221.207703 
	C245.389709,220.693329 245.075897,220.178955 244.352509,219.388672 
	C243.899216,218.915756 243.445908,218.442841 242.954391,217.323380 
	C242.911819,217.111710 242.869263,216.900055 242.772659,216.012390 
	C241.873932,214.314468 241.080811,212.549698 240.056503,210.931244 
	C237.083740,206.234268 234.018250,201.596008 230.714111,196.304504 
	C228.482819,192.538361 226.251526,188.772232 224.011200,184.226639 
	C221.006210,178.127365 218.001205,172.028091 214.988556,166.007339 
	C214.988556,166.007339 215.066849,166.017044 214.997833,165.245041 
	C213.237854,160.491089 211.567886,155.700104 209.640854,151.014847 
	C209.262070,150.093933 207.890366,149.581406 206.992096,148.127533 
	C202.667313,133.767349 198.342529,119.407173 194.060455,104.197632 
	C193.717697,101.788216 193.552139,99.332207 192.937408,96.994316 
	C192.718216,96.160805 191.262756,94.948662 190.633072,95.088310 
	C189.636795,95.309235 188.317841,96.396454 188.096985,97.341736 
	C187.517731,99.821205 187.457916,102.422028 187.062698,105.779938 
	C185.761459,110.830246 184.460220,115.880547 183.013336,121.714531 
	C178.037003,135.432007 173.060669,149.149475 167.743362,163.512314 
	C159.250854,179.146530 150.930023,194.877487 142.196686,210.375977 
	C137.512695,218.688370 132.119370,226.601044 126.345238,234.944672 
	C122.889862,239.969376 119.434486,244.994080 116.018013,250.017410 
	C116.018013,250.017410 116.018959,249.978500 115.874557,250.300873 
	C115.674644,250.424515 115.466698,250.532745 114.805214,251.195358 
	C112.154243,254.028900 109.503265,256.862427 105.832306,260.786194 
	C105.334930,258.108978 104.449158,256.440704 104.929321,255.406754 
	C107.450554,249.977585 106.193962,245.600906 101.921570,241.102264 
	C100.949242,240.385895 99.976913,239.669525 98.989532,239.007202 
	C98.989532,239.007202 99.045555,239.009979 99.389008,238.400085 
	C98.926117,237.916534 98.463234,237.432968 97.993584,237.004456 
	C97.993584,237.004456 98.047852,236.992996 97.810577,236.310608 
	C96.481354,235.444626 95.152138,234.578629 93.166603,233.285065 
	C93.934311,240.149109 94.576675,245.892517 95.025406,252.401489 
	C94.027847,255.045410 92.562599,257.626221 92.194435,260.355072 
	C91.942108,262.225403 92.590340,265.166656 93.921082,266.129547 
	C98.579376,269.500122 103.605202,272.422577 108.734879,275.037689 
	C109.940376,275.652252 112.776054,274.977081 113.705429,273.898682 
	C117.984352,268.933594 121.830635,263.597534 125.875175,258.428253 
	C135.827332,245.708466 145.851410,233.044647 155.753815,220.286316 
	C163.287109,210.580399 170.638290,200.733276 178.148346,191.009109 
	C182.074997,185.924774 186.169434,180.970016 190.921997,175.041168 
	C194.334152,179.331253 197.402512,183.071884 200.344482,186.909409 
	C210.109879,199.647415 219.761475,212.473251 229.592575,225.160110 
	C235.575867,232.881439 241.907089,240.332901 247.903030,248.044769 
	C254.099442,256.014526 259.976685,264.233337 266.212128,272.171448 
	C268.254333,274.771301 270.825470,276.862854 274.544800,274.085205 
	C277.047577,272.216125 279.999023,270.961334 282.636444,269.256439 
	C291.011200,263.842834 291.000854,263.807709 287.933929,254.518143 
	C287.740997,253.933731 287.200043,253.464218 286.838470,252.132080 
	C287.118378,248.057693 287.483368,243.986588 287.641602,239.907486 
	C287.718201,237.932861 287.406769,235.943176 287.271057,233.960312 
	C286.663879,233.877396 286.056702,233.794464 285.449554,233.711533 
	C284.674164,235.129288 283.898773,236.547028 282.560577,238.340942 
	C280.077179,242.305725 277.593811,246.270523 275.072540,250.913406 
	C275.371613,251.629883 275.670715,252.346359 275.988983,252.995667 
	C275.988983,252.995667 275.920685,252.980988 275.959015,253.668594 
z"/>
<path fill="#0F0F0F" opacity="1.000000" stroke="none" 
	d="
M194.017761,105.046982 
	C198.342529,119.407173 202.667313,133.767349 206.870361,148.891144 
	C208.141647,153.135406 209.358292,156.701691 210.991516,160.065735 
	C212.030045,162.204819 213.687134,164.043594 215.066849,166.017044 
	C215.066849,166.017044 214.988556,166.007339 214.793350,166.335999 
	C217.738846,172.778458 220.879532,178.892288 224.020233,185.006104 
	C226.251526,188.772232 228.482819,192.538361 230.730072,196.927216 
	C233.220398,202.164017 235.558334,206.859222 238.231720,211.354965 
	C239.412857,213.341232 241.274185,214.923019 242.826721,216.688416 
	C242.869263,216.900055 242.911819,217.111710 243.080597,217.892227 
	C243.725250,218.862244 244.243668,219.263412 244.762100,219.664581 
	C245.075897,220.178955 245.389709,220.693329 245.766083,221.863892 
	C249.773178,227.972748 253.717697,233.425400 257.662201,238.878067 
	C262.122955,244.896622 266.485046,250.993042 271.124084,256.870911 
	C272.103180,258.111481 274.096832,258.551331 276.178894,259.045380 
	C276.821930,257.824829 276.909058,256.919037 276.996216,256.013214 
	C276.996216,256.013214 276.988708,255.535309 277.044128,254.902084 
	C276.706604,253.839569 276.313660,253.410278 275.920685,252.980988 
	C275.920685,252.980988 275.988983,252.995667 276.319397,252.836563 
	C276.136658,251.863403 275.623535,251.049362 275.110413,250.235306 
	C277.593811,246.270523 280.077179,242.305725 283.144653,238.101990 
	C287.957306,237.903793 285.036835,240.458572 284.841583,241.624939 
	C284.161377,245.688324 281.934143,249.886124 286.820984,252.941254 
	C287.200043,253.464218 287.740997,253.933731 287.933929,254.518143 
	C291.000854,263.807709 291.011200,263.842834 282.636444,269.256439 
	C279.999023,270.961334 277.047577,272.216125 274.544800,274.085205 
	C270.825470,276.862854 268.254333,274.771301 266.212128,272.171448 
	C259.976685,264.233337 254.099442,256.014526 247.903030,248.044769 
	C241.907089,240.332901 235.575867,232.881439 229.592575,225.160110 
	C219.761475,212.473251 210.109879,199.647415 200.344482,186.909409 
	C197.402512,183.071884 194.334152,179.331253 190.921997,175.041168 
	C186.169434,180.970016 182.074997,185.924774 178.148346,191.009109 
	C170.638290,200.733276 163.287109,210.580399 155.753815,220.286316 
	C145.851410,233.044647 135.827332,245.708466 125.875175,258.428253 
	C121.830635,263.597534 117.984352,268.933594 113.705429,273.898682 
	C112.776054,274.977081 109.940376,275.652252 108.734879,275.037689 
	C103.605202,272.422577 98.579376,269.500122 93.921082,266.129547 
	C92.590340,265.166656 91.942108,262.225403 92.194435,260.355072 
	C92.562599,257.626221 94.027847,255.045410 95.452339,251.978500 
	C98.985680,249.135605 97.807724,246.179062 97.129158,243.134628 
	C96.672867,241.087448 94.347107,238.506195 98.047852,236.992996 
	C98.047852,236.992996 97.993584,237.004456 97.895050,237.304947 
	C98.212868,238.073624 98.629211,238.541794 99.045555,239.009979 
	C99.045555,239.009979 98.989532,239.007202 98.996323,239.314545 
	C99.965813,240.348419 100.928513,241.074951 101.891212,241.801483 
	C106.193962,245.600906 107.450554,249.977585 104.929321,255.406754 
	C104.449158,256.440704 105.334930,258.108978 105.832306,260.786194 
	C109.503265,256.862427 112.154243,254.028900 115.123718,250.760757 
	C115.540169,250.054504 115.732414,249.938629 116.018959,249.978500 
	C116.018959,249.978500 116.018013,250.017410 116.291077,249.851562 
	C120.058144,244.688492 123.552139,239.691284 127.046135,234.694092 
	C132.119370,226.601044 137.512695,218.688370 142.196686,210.375977 
	C150.930023,194.877487 159.250854,179.146530 168.255707,163.184296 
	C171.576447,157.001831 174.808258,151.306854 177.088425,145.253418 
	C180.084732,137.298798 182.331772,129.061935 185.025467,120.593277 
	C186.402023,115.154869 187.654129,110.069633 189.019440,104.614380 
	C189.547333,103.367386 189.962051,102.490402 190.437912,101.484138 
	C191.901093,102.940361 192.959427,103.993668 194.017761,105.046982 
z"/>
<path fill="#616161" opacity="1.000000" stroke="none" 
	d="
M184.901031,120.946449 
	C182.331772,129.061935 180.084732,137.298798 177.088425,145.253418 
	C174.808258,151.306854 171.576447,157.001831 168.426178,162.861633 
	C173.060669,149.149475 178.037003,135.432007 183.376282,121.338318 
	C184.126495,120.956879 184.513763,120.951660 184.901031,120.946449 
z"/>
<path fill="#666666" opacity="1.000000" stroke="none" 
	d="
M97.929214,236.651794 
	C94.347107,238.506195 96.672867,241.087448 97.129158,243.134628 
	C97.807724,246.179062 98.985680,249.135605 95.549156,251.595718 
	C94.576675,245.892517 93.934311,240.149109 93.166603,233.285065 
	C95.152138,234.578629 96.481354,235.444626 97.929214,236.651794 
z"/>
<path fill="#5D5D5D" opacity="1.000000" stroke="none" 
	d="
M286.829712,252.536667 
	C281.934143,249.886124 284.161377,245.688324 284.841583,241.624939 
	C285.036835,240.458572 287.957306,237.903793 283.426056,237.913910 
	C283.898773,236.547028 284.674164,235.129288 285.449554,233.711533 
	C286.056702,233.794464 286.663879,233.877396 287.271057,233.960312 
	C287.406769,235.943176 287.718201,237.932861 287.641602,239.907486 
	C287.483368,243.986588 287.118378,248.057693 286.829712,252.536667 
z"/>
<path fill="#929292" opacity="1.000000" stroke="none" 
	d="
M242.799683,216.350403 
	C241.274185,214.923019 239.412857,213.341232 238.231720,211.354965 
	C235.558334,206.859222 233.220398,202.164017 230.867584,197.242310 
	C234.018250,201.596008 237.083740,206.234268 240.056503,210.931244 
	C241.080811,212.549698 241.873932,214.314468 242.799683,216.350403 
z"/>
<path fill="#9F9F9F" opacity="1.000000" stroke="none" 
	d="
M194.039124,104.622299 
	C192.959427,103.993668 191.901093,102.940361 190.437912,101.484138 
	C189.962051,102.490402 189.547333,103.367386 188.733597,104.610603 
	C187.953430,104.976059 187.572266,104.975281 187.191116,104.974495 
	C187.457916,102.422028 187.517731,99.821205 188.096985,97.341736 
	C188.317841,96.396454 189.636795,95.309235 190.633072,95.088310 
	C191.262756,94.948662 192.718216,96.160805 192.937408,96.994316 
	C193.552139,99.332207 193.717697,101.788216 194.039124,104.622299 
z"/>
<path fill="#ABABAB" opacity="1.000000" stroke="none" 
	d="
M257.428894,238.626556 
	C253.717697,233.425400 249.773178,227.972748 245.893188,222.137207 
	C247.170425,222.458664 248.896622,222.865204 249.507492,223.918549 
	C252.243713,228.636734 254.662323,233.539124 257.428894,238.626556 
z"/>
<path fill="#999999" opacity="1.000000" stroke="none" 
	d="
M224.015717,184.616364 
	C220.879532,178.892288 217.738846,172.778458 214.797180,166.296722 
	C218.001205,172.028091 221.006210,178.127365 224.015717,184.616364 
z"/>
<path fill="#979797" opacity="1.000000" stroke="none" 
	d="
M215.032349,165.631042 
	C213.687134,164.043594 212.030045,162.204819 210.991516,160.065735 
	C209.358292,156.701691 208.141647,153.135406 206.862610,149.267639 
	C207.890366,149.581406 209.262070,150.093933 209.640854,151.014847 
	C211.567886,155.700104 213.237854,160.491089 215.032349,165.631042 
z"/>
<path fill="#989898" opacity="1.000000" stroke="none" 
	d="
M126.695686,234.819382 
	C123.552139,239.691284 120.058144,244.688492 116.271629,249.852249 
	C119.434486,244.994080 122.889862,239.969376 126.695686,234.819382 
z"/>
<path fill="#8E8E8E" opacity="1.000000" stroke="none" 
	d="
M187.126907,105.377213 
	C187.572266,104.975281 187.953430,104.976059 188.620422,104.980621 
	C187.654129,110.069633 186.402023,115.154869 185.025452,120.593277 
	C184.513763,120.951660 184.126495,120.956879 183.449112,120.946472 
	C184.460220,115.880547 185.761459,110.830246 187.126907,105.377213 
z"/>
<path fill="#666666" opacity="1.000000" stroke="none" 
	d="
M101.906387,241.451874 
	C100.928513,241.074951 99.965813,240.348419 99.003845,239.287537 
	C99.976913,239.669525 100.949242,240.385895 101.906387,241.451874 
z"/>
<path fill="#929292" opacity="1.000000" stroke="none" 
	d="
M244.557312,219.526627 
	C244.243668,219.263412 243.725250,218.862244 243.099701,218.215500 
	C243.445908,218.442841 243.899216,218.915756 244.557312,219.526627 
z"/>
<path fill="#B5B5B5" opacity="1.000000" stroke="none" 
	d="
M275.091492,250.574356 
	C275.623535,251.049362 276.136658,251.863403 276.309784,252.870148 
	C275.670715,252.346359 275.371613,251.629883 275.091492,250.574356 
z"/>
<path fill="#EAEAEA" opacity="1.000000" stroke="none" 
	d="
M276.653442,256.074738 
	C276.909058,256.919037 276.821930,257.824829 276.397339,258.792297 
	C276.143463,257.948059 276.227051,257.042175 276.653442,256.074738 
z"/>
<path fill="#666666" opacity="1.000000" stroke="none" 
	d="
M99.217285,238.705032 
	C98.629211,238.541794 98.212868,238.073624 97.898438,237.277420 
	C98.463234,237.432968 98.926117,237.916534 99.217285,238.705032 
z"/>
<path fill="#B5B5B5" opacity="1.000000" stroke="none" 
	d="
M275.939850,253.324799 
	C276.313660,253.410278 276.706604,253.839569 277.056519,254.663422 
	C276.661957,254.594849 276.310486,254.131729 275.939850,253.324799 
z"/>
<path fill="#989898" opacity="1.000000" stroke="none" 
	d="
M115.946762,250.139679 
	C115.732414,249.938629 115.540169,250.054504 115.346481,250.475861 
	C115.466698,250.532745 115.674644,250.424515 115.946762,250.139679 
z"/>
</svg>